<svg width="60" height="61" viewBox="0 0 60 61" fill="none" xmlns="http://www.w3.org/2000/svg">
<g clip-path="url(#clip0_109_39)">
<path d="M30.7701 28.8177C30.7701 28.8177 30.8203 28.7675 30.9208 28.6671C31.0212 28.5666 31.0714 28.3601 31.0714 28.0476C31.0714 27.7351 30.971 27.4784 30.7701 27.2776C30.5692 27.0767 30.3125 26.9762 30 26.9762C28.5268 26.9762 27.2656 27.5008 26.2165 28.5499C25.1674 29.599 24.6429 30.8601 24.6429 32.3334C24.6429 32.6459 24.7433 32.9026 24.9442 33.1034C25.1451 33.3043 25.4018 33.4048 25.7143 33.4048C26.0268 33.4048 26.2835 33.3043 26.4844 33.1034C26.6853 32.9026 26.7857 32.6459 26.7857 32.3334C26.7857 31.4405 27.0982 30.6816 27.7232 30.0566C28.3482 29.4316 29.1071 29.1191 30 29.1191C30.3125 29.1191 30.5692 29.0186 30.7701 28.8177ZM36.0603 26.3401C36.0603 26.3401 36.4788 26.7586 37.3158 27.5956C38.1529 28.4327 38.5714 30.0343 38.5714 32.4003C38.5714 34.7664 37.7344 36.7865 36.0603 38.4606C34.3862 40.1347 32.3661 40.9718 30 40.9718C27.6339 40.9718 25.6138 40.1347 23.9397 38.4606C22.2656 36.7865 21.4286 34.7664 21.4286 32.4003C21.4286 30.0343 22.2656 28.0142 23.9397 26.3401C25.6138 24.6659 27.6339 23.8289 30 23.8289C32.3661 23.8289 34.3862 24.6659 36.0603 26.3401ZM4.28571 51.6191H55.7143V47.3334H4.28571V51.6191ZM39.0904 41.4907C39.0904 41.4907 39.7182 40.8629 40.9738 39.6074C42.2294 38.3518 42.8571 35.9494 42.8571 32.4003C42.8571 28.8512 41.6016 25.8211 39.0904 23.3099C36.5792 20.7988 33.5491 19.5432 30 19.5432C26.4509 19.5432 23.4208 20.7988 20.9096 23.3099C18.3984 25.8211 17.1429 28.8512 17.1429 32.4003C17.1429 35.9494 18.3984 38.9796 20.9096 41.4907C23.4208 44.0019 26.4509 45.2575 30 45.2575C33.5491 45.2575 36.5792 44.0019 39.0904 41.4907ZM8.57143 10.9048H21.4286V6.61907H8.57143V10.9048ZM4.28571 17.3334H55.7143V13.3825V8.76193H27.9911L25.8482 13.0476H4.28571V17.3334ZM60 8.76193V51.6191C60 52.8021 59.5815 53.8122 58.7444 54.6492C57.9074 55.4863 56.8973 55.9048 55.7143 55.9048H4.28571C3.10268 55.9048 2.09263 55.4863 1.25558 54.6492C0.418527 53.8122 0 52.8021 0 51.6191V8.76193C0 7.5789 0.418527 6.56885 1.25558 5.7318C2.09263 4.89474 3.10268 4.47622 4.28571 4.47622H55.7143C56.8973 4.47622 57.9074 4.89474 58.7444 5.7318C59.5815 6.56885 60 7.5789 60 8.76193Z" fill="white"/>
</g>
<defs>
<clipPath id="clip0_109_39">
<rect width="60" height="60" fill="white" transform="matrix(1 0 0 -1 0 60.1904)"/>
</clipPath>
</defs>
</svg>
