<svg width="60" height="61" viewBox="0 0 60 61" fill="none" xmlns="http://www.w3.org/2000/svg">
<g clip-path="url(#clip0_109_27)">
<path d="M59.0625 0.558735C59.7991 1.09445 60.1004 1.80873 59.9665 2.70159L51.3951 54.1302C51.2835 54.7775 50.9263 55.2797 50.3237 55.6369C50.0112 55.8154 49.6652 55.9047 49.2857 55.9047C49.0402 55.9047 48.7723 55.8489 48.4821 55.7373L30.837 48.5386L20.8594 59.4873C20.4576 59.9561 19.933 60.1904 19.2857 60.1904C18.9732 60.1904 18.7165 60.1458 18.5156 60.0565C18.0915 59.9003 17.7567 59.638 17.5112 59.2697C17.2656 58.9014 17.1429 58.494 17.1429 58.0476V42.9136L1.33928 36.4516C0.513388 36.1391 0.0669597 35.5253 -4.58956e-06 34.6101C-0.0669689 33.7395 0.290174 33.0811 1.07142 32.6346L56.7857 0.491772C57.567 0.0230217 58.3259 0.0453415 59.0625 0.558735ZM47.6116 50.7485L55.0112 6.45159L6.99776 34.1413L18.2478 38.7284L47.1428 17.3333L31.1384 44.0186L47.6116 50.7485Z" fill="white"/>
</g>
<defs>
<clipPath id="clip0_109_27">
<rect width="60" height="60" fill="white" transform="matrix(1 0 0 -1 0 60.1904)"/>
</clipPath>
</defs>
</svg>
