<svg width="60" height="61" viewBox="0 0 60 61" fill="none" xmlns="http://www.w3.org/2000/svg">
<g clip-path="url(#clip0_109_33)">
<path d="M55.7143 20.1459C55.7143 18.3378 55.4743 16.7418 54.9944 15.3579C54.5145 13.974 53.9007 12.8747 53.1529 12.0599C52.4051 11.2452 51.4955 10.5811 50.4241 10.0677C49.3527 9.55434 48.3036 9.20836 47.2768 9.02979C46.25 8.85122 45.1562 8.76193 43.9955 8.76193C42.8348 8.76193 41.5848 9.04653 40.2455 9.61572C38.9062 10.1849 37.673 10.8992 36.5458 11.7586C35.4185 12.618 34.4531 13.4215 33.6496 14.1693C32.846 14.9171 32.1763 15.6034 31.6406 16.2284C31.2388 16.7195 30.692 16.9651 30 16.9651C29.308 16.9651 28.7612 16.7195 28.3594 16.2284C27.8237 15.6034 27.154 14.9171 26.3504 14.1693C25.5469 13.4215 24.5815 12.618 23.4542 11.7586C22.327 10.8992 21.0938 10.1849 19.7545 9.61572C18.4152 9.04653 17.1652 8.76193 16.0045 8.76193C14.8437 8.76193 13.75 8.85122 12.7232 9.02979C11.6964 9.20836 10.6473 9.55434 9.57589 10.0677C8.50446 10.5811 7.59487 11.2452 6.8471 12.0599C6.09933 12.8747 5.48549 13.974 5.00558 15.3579C4.52567 16.7418 4.28571 18.3378 4.28571 20.1459C4.28571 23.8959 6.37277 27.8579 10.5469 32.032L30 50.782L49.4196 32.0655C53.6161 27.8691 55.7143 23.8959 55.7143 20.1459ZM60 20.1459C60 25.0789 57.4442 30.1012 52.3326 35.2128L31.4732 55.3021C31.0714 55.7039 30.5804 55.9048 30 55.9048C29.4196 55.9048 28.9286 55.7039 28.5268 55.3021L7.63393 35.1459C7.41071 34.9673 7.10379 34.6771 6.71317 34.2753C6.32254 33.8735 5.70312 33.1425 4.85491 32.0822C4.0067 31.022 3.24777 29.9338 2.57812 28.8177C1.90848 27.7017 1.31138 26.3512 0.78683 24.7664C0.262277 23.1816 0 21.6414 0 20.1459C0 15.2351 1.41741 11.3959 4.25223 8.628C7.08705 5.86015 11.0045 4.47622 16.0045 4.47622C17.3884 4.47622 18.8002 4.71617 20.24 5.19608C21.6797 5.67599 23.019 6.32331 24.2578 7.13805C25.4967 7.95278 26.5625 8.71729 27.4554 9.43157C28.3482 10.1459 29.1964 10.9048 30 11.7084C30.8036 10.9048 31.6518 10.1459 32.5446 9.43157C33.4375 8.71729 34.5033 7.95278 35.7422 7.13805C36.981 6.32331 38.3203 5.67599 39.76 5.19608C41.1998 4.71617 42.6116 4.47622 43.9955 4.47622C48.9955 4.47622 52.9129 5.86015 55.7478 8.628C58.5826 11.3959 60 15.2351 60 20.1459Z" fill="white"/>
</g>
<defs>
<clipPath id="clip0_109_33">
<rect width="60" height="60" fill="white" transform="matrix(1 0 0 -1 0 60.1904)"/>
</clipPath>
</defs>
</svg>
